<?xml version="1.0" encoding="UTF-8" standalone="no"?>
<!DOCTYPE svg PUBLIC "-//W3C//DTD SVG 1.1//EN"
 "http://www.w3.org/Graphics/SVG/1.1/DTD/svg11.dtd">
<!-- Generated by graphviz version 2.40.1 (20161225.0304)
 -->
<!-- Title: myvb Pages: 1 -->
<svg width="1804pt" height="553pt"
 viewBox="0.00 0.00 1804.00 553.45" xmlns="http://www.w3.org/2000/svg" xmlns:xlink="http://www.w3.org/1999/xlink">
<g id="graph0" class="graph" transform="scale(1 1) rotate(0) translate(4 549.454)">
<title>myvb</title>
<polygon fill="#ffffff" stroke="transparent" points="-4,4 -4,-549.454 1800,-549.454 1800,4 -4,4"/>
<g id="clust1" class="cluster">
<title>cluster_user</title>
<polygon fill="none" stroke="#000000" points="46,-8 46,-207.8688 674,-207.8688 674,-8 46,-8"/>
<text text-anchor="middle" x="360" y="-191.2688" font-family="Times,serif" font-size="14.00" fill="#000000">User</text>
</g>
<g id="clust2" class="cluster">
<title>cluster_authentication</title>
<polygon fill="none" stroke="#000000" points="8,-215.8688 8,-292.6688 304,-292.6688 304,-215.8688 8,-215.8688"/>
<text text-anchor="middle" x="156" y="-276.0688" font-family="Times,serif" font-size="14.00" fill="#000000">Auth</text>
</g>
<g id="clust3" class="cluster">
<title>cluster_transaction</title>
<polygon fill="none" stroke="#000000" points="1398,-69.5344 1398,-369.4688 1788,-369.4688 1788,-69.5344 1398,-69.5344"/>
<text text-anchor="middle" x="1593" y="-352.8688" font-family="Times,serif" font-size="14.00" fill="#000000">Transaction</text>
</g>
<g id="clust4" class="cluster">
<title>cluster_banking_group</title>
<polygon fill="none" stroke="#000000" points="682,-67.4818 682,-537.454 1390,-537.454 1390,-67.4818 682,-67.4818"/>
<text text-anchor="middle" x="1036" y="-520.854" font-family="Times,serif" font-size="14.00" fill="#000000">Banking group</text>
</g>
<!-- user -->
<g id="node1" class="node">
<title>user</title>
<polygon fill="none" stroke="#0000ff" points="156.8211,-115.3555 117.1789,-115.3555 117.1789,-75.7133 156.8211,-75.7133 156.8211,-115.3555"/>
<text text-anchor="middle" x="137" y="-91.3344" font-family="Times,serif" font-size="14.00" fill="#000000">user</text>
</g>
<!-- guest -->
<g id="node2" class="node">
<title>guest</title>
<polygon fill="none" stroke="#0000ff" points="99.552,-118.0864 54.448,-118.0864 54.448,-72.9824 99.552,-72.9824 99.552,-118.0864"/>
<text text-anchor="middle" x="77" y="-91.3344" font-family="Times,serif" font-size="14.00" fill="#000000">guest</text>
</g>
<!-- banking_group_owner -->
<g id="node3" class="node">
<title>banking_group_owner</title>
<polygon fill="none" stroke="#0000ff" points="317.2478,-166.7822 174.7522,-166.7822 174.7522,-24.2866 317.2478,-24.2866 317.2478,-166.7822"/>
<text text-anchor="middle" x="246" y="-91.3344" font-family="Times,serif" font-size="14.00" fill="#000000">banking_group_owner</text>
</g>
<!-- banking_group_member -->
<g id="node4" class="node">
<title>banking_group_member</title>
<polygon fill="none" stroke="#0000ff" points="488.6372,-172.1716 335.3628,-172.1716 335.3628,-18.8972 488.6372,-18.8972 488.6372,-172.1716"/>
<text text-anchor="middle" x="412" y="-91.3344" font-family="Times,serif" font-size="14.00" fill="#000000">banking_group_member</text>
</g>
<!-- banking_group_borrower -->
<g id="node5" class="node">
<title>banking_group_borrower</title>
<polygon fill="none" stroke="#0000ff" points="665.5688,-175.1032 506.4312,-175.1032 506.4312,-15.9656 665.5688,-15.9656 665.5688,-175.1032"/>
<text text-anchor="middle" x="586" y="-91.3344" font-family="Times,serif" font-size="14.00" fill="#000000">banking_group_borrower</text>
</g>
<!-- registration -->
<g id="node6" class="node">
<title>registration</title>
<ellipse fill="none" stroke="#000000" cx="241" cy="-241.8688" rx="55.0304" ry="18"/>
<text text-anchor="middle" x="241" y="-237.6688" font-family="Times,serif" font-size="14.00" fill="#000000">registration</text>
</g>
<!-- registration&#45;&gt;user -->
<g id="edge1" class="edge">
<title>registration&#45;&gt;user</title>
<path fill="none" stroke="#00ff00" d="M206.1296,-227.674C187.9873,-220.0042 168.9664,-211.3984 166,-207.8688 146.5839,-184.766 139.9614,-150.2271 137.8079,-125.5521"/>
<polygon fill="#00ff00" stroke="#00ff00" points="141.2826,-125.0569 137.1185,-115.3147 134.2984,-125.5273 141.2826,-125.0569"/>
</g>
<!-- login -->
<g id="node7" class="node">
<title>login</title>
<ellipse fill="none" stroke="#000000" cx="137" cy="-241.8688" rx="30.7789" ry="18"/>
<text text-anchor="middle" x="137" y="-237.6688" font-family="Times,serif" font-size="14.00" fill="#000000">login</text>
</g>
<!-- login&#45;&gt;user -->
<g id="edge2" class="edge">
<title>login&#45;&gt;user</title>
<path fill="none" stroke="#00ff00" d="M137,-223.6313C137,-199.0662 137,-155.034 137,-125.5493"/>
<polygon fill="#00ff00" stroke="#00ff00" points="140.5001,-125.4077 137,-115.4077 133.5001,-125.4077 140.5001,-125.4077"/>
</g>
<!-- logout -->
<g id="node8" class="node">
<title>logout</title>
<ellipse fill="none" stroke="#000000" cx="52" cy="-241.8688" rx="35.9368" ry="18"/>
<text text-anchor="middle" x="52" y="-237.6688" font-family="Times,serif" font-size="14.00" fill="#000000">logout</text>
</g>
<!-- logout&#45;&gt;guest -->
<g id="edge3" class="edge">
<title>logout&#45;&gt;guest</title>
<path fill="none" stroke="#00ff00" d="M55.0655,-223.9253C59.136,-200.0991 66.3976,-157.594 71.4455,-128.0473"/>
<polygon fill="#00ff00" stroke="#00ff00" points="74.8957,-128.6351 73.1297,-118.1885 67.9956,-127.4563 74.8957,-128.6351"/>
</g>
<!-- create_transaction -->
<g id="node9" class="node">
<title>create_transaction</title>
<ellipse fill="none" stroke="#000000" cx="1487" cy="-318.6688" rx="81.0551" ry="18"/>
<text text-anchor="middle" x="1487" y="-314.4688" font-family="Times,serif" font-size="14.00" fill="#000000">create_transaction</text>
</g>
<!-- process_transaction -->
<g id="node10" class="node">
<title>process_transaction</title>
<ellipse fill="none" stroke="#000000" cx="1493" cy="-241.8688" rx="87.377" ry="18"/>
<text text-anchor="middle" x="1493" y="-237.6688" font-family="Times,serif" font-size="14.00" fill="#000000">process_transaction</text>
</g>
<!-- create_transaction&#45;&gt;process_transaction -->
<g id="edge4" class="edge">
<title>create_transaction&#45;&gt;process_transaction</title>
<path fill="none" stroke="#000000" d="M1488.4219,-300.4683C1489.1318,-291.382 1490.0064,-280.1864 1490.8004,-270.0237"/>
<polygon fill="#000000" stroke="#000000" points="1494.2987,-270.1809 1491.5883,-259.9387 1487.32,-269.6357 1494.2987,-270.1809"/>
</g>
<!-- transaction_approved -->
<g id="node11" class="node">
<title>transaction_approved</title>
<ellipse fill="none" stroke="#000000" cx="1686" cy="-95.5344" rx="94.3253" ry="18"/>
<text text-anchor="middle" x="1686" y="-91.3344" font-family="Times,serif" font-size="14.00" fill="#000000">transaction_approved</text>
</g>
<!-- process_transaction&#45;&gt;transaction_approved -->
<g id="edge5" class="edge">
<title>process_transaction&#45;&gt;transaction_approved</title>
<path fill="none" stroke="#000000" d="M1544.0843,-227.2759C1557.3702,-222.2476 1571.2422,-215.8261 1583,-207.8688 1617.6954,-184.3881 1648.8735,-146.9818 1667.6134,-121.8574"/>
<polygon fill="#000000" stroke="#000000" points="1670.6289,-123.6631 1673.7085,-113.5257 1664.9793,-119.53 1670.6289,-123.6631"/>
</g>
<!-- transaction_denied -->
<g id="node12" class="node">
<title>transaction_denied</title>
<ellipse fill="none" stroke="#000000" cx="1490" cy="-95.5344" rx="83.9489" ry="18"/>
<text text-anchor="middle" x="1490" y="-91.3344" font-family="Times,serif" font-size="14.00" fill="#000000">transaction_denied</text>
</g>
<!-- process_transaction&#45;&gt;transaction_denied -->
<g id="edge6" class="edge">
<title>process_transaction&#45;&gt;transaction_denied</title>
<path fill="none" stroke="#000000" d="M1492.6261,-223.6313C1492.1113,-198.5204 1491.1795,-153.0674 1490.5755,-123.6056"/>
<polygon fill="#000000" stroke="#000000" points="1494.0735,-123.4681 1490.3692,-113.542 1487.075,-123.6117 1494.0735,-123.4681"/>
</g>
<!-- investment_balance -->
<g id="node13" class="node">
<title>investment_balance</title>
<polygon fill="none" stroke="#0000ff" points="1381.6853,-504.7467 1254.3147,-504.7467 1254.3147,-377.3761 1381.6853,-377.3761 1381.6853,-504.7467"/>
<text text-anchor="middle" x="1318" y="-436.8614" font-family="Times,serif" font-size="14.00" fill="#000000">investment_balance</text>
</g>
<!-- transaction_approved&#45;&gt;investment_balance -->
<g id="edge12" class="edge">
<title>transaction_approved&#45;&gt;investment_balance</title>
<path fill="none" stroke="#000000" d="M1684.2607,-113.6714C1678.5756,-162.6342 1656.0805,-298.5713 1577,-369.4688 1549.701,-393.943 1458.2861,-415.3526 1391.7795,-428.2345"/>
<polygon fill="#000000" stroke="#000000" points="1390.9123,-424.8368 1381.7462,-430.1502 1392.2252,-431.7125 1390.9123,-424.8368"/>
</g>
<!-- loan -->
<g id="node14" class="node">
<title>loan</title>
<polygon fill="none" stroke="#0000ff" points="1137.1053,-115.6397 1096.8947,-115.6397 1096.8947,-75.4291 1137.1053,-75.4291 1137.1053,-115.6397"/>
<text text-anchor="middle" x="1117" y="-91.3344" font-family="Times,serif" font-size="14.00" fill="#000000">loan</text>
</g>
<!-- create_banking_group -->
<g id="node15" class="node">
<title>create_banking_group</title>
<ellipse fill="none" stroke="#000000" cx="787" cy="-441.0614" rx="97.2606" ry="18"/>
<text text-anchor="middle" x="787" y="-436.8614" font-family="Times,serif" font-size="14.00" fill="#000000">create_banking_group</text>
</g>
<!-- create_banking_group_j1 -->
<g id="node16" class="node">
<title>create_banking_group_j1</title>
<ellipse fill="none" stroke="#000000" cx="800" cy="-318.6688" rx="109.9421" ry="18"/>
<text text-anchor="middle" x="800" y="-314.4688" font-family="Times,serif" font-size="14.00" fill="#000000">create_banking_group_j1</text>
</g>
<!-- create_banking_group&#45;&gt;create_banking_group_j1 -->
<g id="edge7" class="edge">
<title>create_banking_group&#45;&gt;create_banking_group_j1</title>
<path fill="none" stroke="#00ff00" d="M788.9182,-423.002C791.0496,-402.9349 794.5184,-370.277 797.0075,-346.8423"/>
<polygon fill="#00ff00" stroke="#00ff00" points="800.4981,-347.1161 798.0739,-336.8023 793.5372,-346.3767 800.4981,-347.1161"/>
</g>
<!-- create_banking_group_j1&#45;&gt;banking_group_owner -->
<g id="edge8" class="edge">
<title>create_banking_group_j1&#45;&gt;banking_group_owner</title>
<path fill="none" stroke="#00ff00" d="M718.1422,-306.6806C600.1669,-288.219 389.5178,-250.4706 326,-207.8688 313.0325,-199.1714 301.4802,-187.6153 291.4636,-175.2213"/>
<polygon fill="#00ff00" stroke="#00ff00" points="293.9831,-172.7572 285.1036,-166.9774 288.4407,-177.033 293.9831,-172.7572"/>
</g>
<!-- join_banking_group -->
<g id="node17" class="node">
<title>join_banking_group</title>
<ellipse fill="none" stroke="#000000" cx="789" cy="-241.8688" rx="89.2185" ry="18"/>
<text text-anchor="middle" x="789" y="-237.6688" font-family="Times,serif" font-size="14.00" fill="#000000">join_banking_group</text>
</g>
<!-- create_banking_group_j1&#45;&gt;join_banking_group -->
<g id="edge9" class="edge">
<title>create_banking_group_j1&#45;&gt;join_banking_group</title>
<path fill="none" stroke="#00ff00" d="M797.3932,-300.4683C796.0917,-291.382 794.4882,-280.1864 793.0326,-270.0237"/>
<polygon fill="#00ff00" stroke="#00ff00" points="796.4707,-269.3414 791.5881,-259.9387 789.5414,-270.3339 796.4707,-269.3414"/>
</g>
<!-- join_banking_group&#45;&gt;banking_group_member -->
<g id="edge10" class="edge">
<title>join_banking_group&#45;&gt;banking_group_member</title>
<path fill="none" stroke="#00ff00" d="M700.6122,-239.1456C627.6172,-235.5277 530.7265,-227.1559 497,-207.8688 484.4942,-200.7171 473.2431,-190.9089 463.3314,-180.0453"/>
<polygon fill="#00ff00" stroke="#00ff00" points="465.8787,-177.6403 456.6846,-172.3754 460.5887,-182.2247 465.8787,-177.6403"/>
</g>
<!-- invest_banking_group -->
<g id="node18" class="node">
<title>invest_banking_group</title>
<ellipse fill="none" stroke="#000000" cx="1139" cy="-441.0614" rx="97.303" ry="18"/>
<text text-anchor="middle" x="1139" y="-436.8614" font-family="Times,serif" font-size="14.00" fill="#000000">invest_banking_group</text>
</g>
<!-- invest_banking_group&#45;&gt;create_transaction -->
<g id="edge11" class="edge">
<title>invest_banking_group&#45;&gt;create_transaction</title>
<path fill="none" stroke="#000000" d="M1161.0229,-423.4262C1181.458,-408.1889 1213.3978,-387.1409 1245,-377.4688 1308.4141,-358.0605 1330.2067,-387.5916 1394,-369.4688 1415.2492,-363.4322 1437.0241,-351.883 1454.1571,-341.3203"/>
<polygon fill="#000000" stroke="#000000" points="1456.0977,-344.2341 1462.6661,-335.921 1452.3473,-338.3236 1456.0977,-344.2341"/>
</g>
<!-- request_loan -->
<g id="node19" class="node">
<title>request_loan</title>
<ellipse fill="none" stroke="#000000" cx="963" cy="-441.0614" rx="60.2537" ry="18"/>
<text text-anchor="middle" x="963" y="-436.8614" font-family="Times,serif" font-size="14.00" fill="#000000">request_loan</text>
</g>
<!-- process_loan -->
<g id="node20" class="node">
<title>process_loan</title>
<ellipse fill="none" stroke="#000000" cx="989" cy="-318.6688" rx="61.3974" ry="18"/>
<text text-anchor="middle" x="989" y="-314.4688" font-family="Times,serif" font-size="14.00" fill="#000000">process_loan</text>
</g>
<!-- request_loan&#45;&gt;process_loan -->
<g id="edge13" class="edge">
<title>request_loan&#45;&gt;process_loan</title>
<path fill="none" stroke="#000000" d="M966.8364,-423.002C971.0992,-402.9349 978.0368,-370.277 983.0151,-346.8423"/>
<polygon fill="#000000" stroke="#000000" points="986.4935,-347.3114 985.1479,-336.8023 979.6462,-345.8568 986.4935,-347.3114"/>
</g>
<!-- loan_approved -->
<g id="node21" class="node">
<title>loan_approved</title>
<ellipse fill="none" stroke="#000000" cx="1117" cy="-241.8688" rx="68.3459" ry="18"/>
<text text-anchor="middle" x="1117" y="-237.6688" font-family="Times,serif" font-size="14.00" fill="#000000">loan_approved</text>
</g>
<!-- process_loan&#45;&gt;loan_approved -->
<g id="edge14" class="edge">
<title>process_loan&#45;&gt;loan_approved</title>
<path fill="none" stroke="#000000" d="M1020.1964,-303.046C1026.4832,-299.7304 1033.0008,-296.171 1039,-292.6688 1053.9977,-283.9137 1070.1483,-273.5575 1083.8413,-264.4872"/>
<polygon fill="#000000" stroke="#000000" points="1086.0738,-267.2051 1092.4478,-258.7421 1082.1874,-261.3831 1086.0738,-267.2051"/>
</g>
<!-- loan_denied -->
<g id="node22" class="node">
<title>loan_denied</title>
<ellipse fill="none" stroke="#000000" cx="972" cy="-241.8688" rx="58.4706" ry="18"/>
<text text-anchor="middle" x="972" y="-237.6688" font-family="Times,serif" font-size="14.00" fill="#000000">loan_denied</text>
</g>
<!-- process_loan&#45;&gt;loan_denied -->
<g id="edge18" class="edge">
<title>process_loan&#45;&gt;loan_denied</title>
<path fill="none" stroke="#000000" d="M984.9712,-300.4683C982.9388,-291.2864 980.4295,-279.9505 978.1612,-269.7031"/>
<polygon fill="#000000" stroke="#000000" points="981.5784,-268.9459 975.9998,-259.9387 974.7439,-270.4588 981.5784,-268.9459"/>
</g>
<!-- loan_approved&#45;&gt;banking_group_borrower -->
<g id="edge16" class="edge">
<title>loan_approved&#45;&gt;banking_group_borrower</title>
<path fill="none" stroke="#000000" d="M1079.1053,-226.706C1066.5464,-222.3678 1052.3605,-218.1891 1039,-215.8688 1019.2354,-212.4363 696.0339,-216.6553 678,-207.8688 665.2032,-201.634 653.5756,-192.6839 643.2239,-182.52"/>
<polygon fill="#000000" stroke="#000000" points="645.7257,-180.0722 636.2625,-175.3079 640.6892,-184.9336 645.7257,-180.0722"/>
</g>
<!-- loan_approved&#45;&gt;create_transaction -->
<g id="edge15" class="edge">
<title>loan_approved&#45;&gt;create_transaction</title>
<path fill="none" stroke="#000000" d="M1170.8847,-253.0535C1236.1515,-266.6008 1346.2158,-289.4466 1417.7271,-304.29"/>
<polygon fill="#000000" stroke="#000000" points="1417.0504,-307.7241 1427.5531,-306.3296 1418.4732,-300.8702 1417.0504,-307.7241"/>
</g>
<!-- loan_approved&#45;&gt;loan -->
<g id="edge17" class="edge">
<title>loan_approved&#45;&gt;loan</title>
<path fill="none" stroke="#000000" d="M1117,-223.6313C1117,-199.2027 1117,-155.5226 1117,-126.042"/>
<polygon fill="#000000" stroke="#000000" points="1120.5001,-125.8851 1117,-115.8852 1113.5001,-125.8852 1120.5001,-125.8851"/>
</g>
</g>
</svg>
